<svg width="157" height="72" viewBox="0 0 157 72" fill="none" xmlns="http://www.w3.org/2000/svg">
<path d="M26.3361 49.5247C25.3262 49.5247 24.6436 49.2792 24.2888 48.7881C23.9613 48.2971 23.7975 47.6695 23.7975 46.9057C23.7975 46.4419 23.8384 45.9782 23.9203 45.5144C24.0022 45.0233 24.0841 44.5185 24.166 44.0002C24.3844 42.8272 24.7529 41.504 25.2715 40.0308C25.8175 38.5304 26.4317 36.9207 27.114 35.202H15.5266C15.1991 35.9386 14.8033 36.8935 14.3392 38.0665C13.9025 39.2123 13.4657 40.44 13.029 41.7495C12.5922 43.059 12.2237 44.3004 11.9235 45.4734C11.6232 46.6193 11.4731 47.5605 11.4731 48.2971C11.4731 48.7063 11.5277 49.0065 11.6369 49.1974H6.35497C6.68253 47.8332 7.11926 46.3191 7.6652 44.655C8.23843 42.9635 8.87989 41.2038 9.58961 39.376C10.3266 37.5482 11.0773 35.734 11.8416 33.9334C12.6059 32.1328 13.3429 30.4141 14.0526 28.7772C14.7623 27.1131 15.5812 25.4353 16.5093 23.7438C16.7004 23.4164 16.8641 23.1162 17.0006 22.8435C17.1644 22.5707 17.3418 22.3387 17.5329 22.1478C16.4684 22.175 15.3219 22.3115 14.0935 22.557C12.8925 22.7753 11.7324 23.089 10.6132 23.4982C9.52138 23.9074 8.57965 24.3848 7.78804 24.9305C7.02374 25.4762 6.5324 26.0763 6.31402 26.7311C6.28673 26.8129 6.23213 26.8538 6.15024 26.8538C5.90457 26.8538 5.78174 26.6629 5.78174 26.2809C5.78174 26.1991 5.80903 26.0763 5.86363 25.9126C6.1093 25.2032 6.40957 24.5759 6.76442 24.0302C7.14657 23.4845 7.52871 23.0209 7.91087 22.6389C8.81166 21.7114 9.82163 21.1519 10.9408 20.961C12.06 20.7428 13.2474 20.6337 14.503 20.6337H23.7565C23.1561 21.0975 22.5145 21.8204 21.8321 22.8025C21.1498 23.7847 20.4673 24.9033 19.7849 26.1582C19.1025 27.3858 18.461 28.6272 17.8605 29.8821C17.2873 31.1097 16.7823 32.2146 16.3455 33.1968H27.9329C28.5334 31.7782 29.134 30.4278 29.7345 29.1455C30.3349 27.836 30.8672 26.6764 31.3313 25.6671C31.8227 24.6578 32.2049 23.9074 32.4778 23.4164C32.7781 22.8163 33.0647 22.3115 33.3376 21.9023C33.638 21.493 34.02 21.1794 34.4841 20.961C34.9482 20.7428 35.6033 20.6337 36.4495 20.6337H39.0699C38.5786 21.0157 38.0191 21.6704 37.3912 22.5979C36.7907 23.4982 36.1766 24.5076 35.5487 25.6262C34.9482 26.7448 34.4159 27.8088 33.9518 28.8181C33.2695 30.2641 32.546 31.901 31.7817 33.7288C31.0447 35.5566 30.3759 37.3846 29.7754 39.2123C29.2022 41.0129 28.7928 42.6361 28.5471 44.0821C28.4652 44.4913 28.4243 44.9005 28.4243 45.3097C28.4243 45.9099 28.5334 46.4693 28.7518 46.9876C28.9703 47.4786 29.366 47.7242 29.9392 47.7242C30.3759 47.7242 30.9082 47.5468 31.5361 47.1922H31.577C31.6317 47.1922 31.6726 47.2468 31.6998 47.3559C31.7271 47.4377 31.7136 47.5058 31.6589 47.5605C31.3313 47.9151 30.8672 48.2424 30.2668 48.5426C29.6663 48.8428 29.0112 49.0746 28.3014 49.2383C27.6191 49.4292 26.964 49.5247 26.3361 49.5247ZM37.4698 49.5247C36.2142 49.5247 35.1224 49.1292 34.1942 48.338C33.2934 47.5468 32.843 46.2782 32.843 44.5322C32.843 43.2499 33.0752 41.9132 33.5391 40.5219C34.0032 39.1305 34.6583 37.8347 35.5044 36.6342C36.378 35.4338 37.4289 34.4517 38.6572 33.6878C39.8855 32.924 41.2642 32.542 42.7926 32.542C44.0484 32.542 45.0174 32.7876 45.6997 33.2786C46.4095 33.7425 46.9146 34.3698 47.2147 35.161C47.515 35.9523 47.6651 36.7979 47.6651 37.6982C47.6651 38.3802 47.5832 39.0759 47.4194 39.7853C47.2831 40.4672 47.0783 41.1494 46.8052 41.8314C47.2693 42.3771 47.8563 42.6498 48.5659 42.6498C49.3303 42.6498 50.0399 42.3633 50.695 41.7904C51.0772 41.4631 51.4185 41.0538 51.7186 40.5628C52.0462 40.0445 52.3328 39.5669 52.5785 39.1305C52.6604 38.9668 52.756 38.885 52.8651 38.885C53.0016 38.885 53.0698 39.0759 53.0698 39.4579C53.0698 39.7034 53.0289 39.9899 52.947 40.3172C52.8925 40.6446 52.756 40.972 52.5375 41.2994C52.1281 42.0088 51.7051 42.5542 51.2682 42.9363C50.8315 43.2908 50.3402 43.5773 49.7942 43.7956C49.3848 43.9593 48.9481 44.0412 48.484 44.0412C47.6378 44.0412 46.8736 43.7819 46.1911 43.2636C45.9728 43.7275 45.6997 44.2048 45.3722 44.6959C44.5807 46.0326 43.5571 47.1785 42.3013 48.1334C41.0457 49.0609 39.4352 49.5247 37.4698 49.5247ZM39.0257 47.9697C39.6536 47.9697 40.254 47.7651 40.8273 47.3559C41.4279 46.9194 41.9737 46.3874 42.4651 45.7599C42.9564 45.1323 43.3796 44.4776 43.7344 43.7956C44.1166 43.1137 44.4304 42.5133 44.6761 41.995C43.7481 41.2038 43.284 40.2082 43.284 39.0077C43.284 38.2165 43.5024 37.6027 43.9391 37.1662C44.376 36.7298 44.9764 36.5387 45.7407 36.5933C45.7134 35.9658 45.5497 35.4475 45.2493 35.0383C44.9492 34.6291 44.4579 34.4244 43.7753 34.4244C43.1476 34.4244 42.547 34.6153 41.9737 34.9974C41.4279 35.3794 40.9092 35.8704 40.4178 36.4706C39.9539 37.0435 39.5308 37.6436 39.1485 38.2711C38.7938 38.8713 38.4934 39.417 38.2478 39.908C37.893 40.6174 37.5654 41.4768 37.2651 42.4861C36.9649 43.4955 36.8147 44.4367 36.8147 45.3097C36.8147 46.0736 36.9649 46.7148 37.2651 47.2331C37.5926 47.7242 38.1796 47.9697 39.0257 47.9697ZM62.0867 49.4429C61.1587 49.4429 60.5171 49.1701 60.1623 48.6244C59.8347 48.0515 59.6709 47.3968 59.6709 46.6602C59.6709 45.7599 59.8484 44.6822 60.2032 43.4273C60.558 42.145 60.9675 40.8629 61.4316 39.5806C61.9229 38.2711 62.3596 37.1116 62.7418 36.1023C62.8509 35.8567 62.9056 35.5975 62.9056 35.3247C62.9056 35.0246 62.81 34.8065 62.619 34.67C62.428 34.5335 62.1823 34.4654 61.882 34.4654C61.4453 34.4654 60.9539 34.6018 60.4079 34.8746C59.5618 35.311 58.7564 36.0067 57.9922 36.9616C57.228 37.9165 56.6138 38.9122 56.1497 39.9489C55.6311 41.122 55.167 42.2952 54.7575 43.4682C54.3481 44.6413 54.0205 45.5962 53.7749 46.3328C53.6111 46.7967 53.461 47.274 53.3245 47.7651C53.1879 48.2561 53.0516 48.7335 52.915 49.1974H48.9434C48.9434 49.1974 49.039 48.8563 49.23 48.1743C49.3938 47.4923 49.6122 46.8102 49.8851 46.1282C50.3492 44.9277 50.8131 43.7275 51.2772 42.527C51.7686 41.3266 52.1917 40.2626 52.5465 39.3351C52.6556 39.0624 52.8194 38.5576 53.0379 37.821C53.2835 37.0572 53.502 36.2659 53.693 35.4475C53.9114 34.6291 54.0205 33.9606 54.0205 33.4423C54.0205 33.1421 53.9796 32.9375 53.8977 32.8285C54.1434 32.8285 54.4163 32.8285 54.7166 32.8285C55.0442 32.8013 55.3445 32.7876 55.6174 32.7876C55.9996 32.7876 56.3544 32.8013 56.682 32.8285C57.0367 32.8557 57.2689 32.924 57.378 33.0331C57.7056 33.2786 57.8694 33.6332 57.8694 34.0971C57.8694 34.4244 57.8012 34.7518 57.6646 35.0792C57.5555 35.4066 57.4736 35.6793 57.419 35.8976C57.8012 35.5431 58.1969 35.202 58.6064 34.8746C59.0158 34.5472 59.6437 34.1243 60.4898 33.606C60.9812 33.3058 61.5953 33.0603 62.3324 32.8694C63.0694 32.6785 63.7382 32.5829 64.3387 32.5829C65.8946 32.5829 66.6725 33.3058 66.6725 34.7518C66.6725 34.9974 66.6453 35.2701 66.5906 35.5703C66.5634 35.8704 66.4815 36.1978 66.3449 36.5524C66.2084 36.9888 65.9902 37.5892 65.6898 38.353C65.3895 39.1168 65.0757 39.9352 64.7481 40.8083C64.4478 41.654 64.1886 42.4589 63.9702 43.2227C63.7517 43.9865 63.6426 44.6004 63.6426 45.0642C63.6426 45.719 63.8883 46.0463 64.3796 46.0463C64.8163 46.0463 65.3623 45.7736 66.0174 45.2279C66.6453 44.7096 67.1911 44.1502 67.6552 43.5501C68.2284 42.8407 68.747 42.0906 69.2111 41.2994C69.7024 40.4809 70.1256 39.7306 70.4804 39.0487C70.6169 38.8303 70.7123 38.7213 70.767 38.7213C70.9308 38.7213 71.0127 38.9531 71.0127 39.417C71.0127 39.6353 70.9717 39.8943 70.8898 40.1945C70.8352 40.4672 70.7398 40.7265 70.6032 40.972C70.221 41.6268 69.7706 42.3496 69.252 43.1409C68.7335 43.9321 68.2012 44.6959 67.6552 45.4325C67.273 45.9508 66.7681 46.5237 66.1402 47.1512C65.5123 47.7788 64.8437 48.3243 64.1339 48.7881C63.4241 49.2246 62.7418 49.4429 62.0867 49.4429ZM69.725 58.8141C68.8242 58.8141 67.9916 58.6232 67.2271 58.2412C66.4629 57.8866 66.0807 57.2181 66.0807 56.236C66.0807 55.6903 66.2444 55.1311 66.572 54.5582C66.8995 54.0125 67.3637 53.6579 67.9643 53.4942C68.0188 53.467 68.0872 53.4533 68.169 53.4533C68.2509 53.4533 68.3191 53.4533 68.3738 53.4533C69.1108 53.4533 69.6021 53.7397 69.8478 54.3126C69.7931 54.3398 69.7112 54.4217 69.6021 54.5582C69.4928 54.7219 69.4109 54.8446 69.3564 54.9265C69.1108 55.4175 68.9877 55.854 68.9877 56.236C68.9877 56.6724 69.1243 57.0135 69.3974 57.259C69.6975 57.5046 70.0797 57.6273 70.5438 57.6273C70.9259 57.6273 71.3353 57.5318 71.7722 57.3409C72.2361 57.1772 72.7139 56.9044 73.2053 56.5224C74.0786 55.813 74.7884 54.9537 75.3344 53.9443C75.9076 52.9622 76.399 51.9938 76.8084 51.0389C77.518 49.3473 78.1868 47.5605 78.8147 45.678C79.4698 43.7956 80.1112 41.9813 80.7391 40.2354C80.2203 41.1903 79.6608 42.145 79.0604 43.0999C78.4872 44.0549 77.9002 44.8868 77.2998 45.5962C76.4262 46.6602 75.4982 47.5468 74.5155 48.2561C73.5601 48.9655 72.6046 49.3201 71.6494 49.3201C70.8849 49.3201 70.2298 49.0474 69.684 48.5017C69.138 47.9288 68.8651 46.9466 68.8651 45.5553C68.8651 44.1367 69.1108 42.677 69.6021 41.1766C70.0932 39.6762 70.7758 38.2848 71.6494 37.0025C72.5501 35.693 73.601 34.6428 74.8021 33.8515C76.0305 33.0603 77.3679 32.6648 78.8147 32.6648C79.2786 32.6648 79.7837 32.7329 80.3297 32.8694C80.8755 33.0059 81.3668 33.2514 81.8037 33.606C82.2676 33.9606 82.5816 34.4654 82.7454 35.1201C83.1274 34.3017 83.5915 33.7151 84.1375 33.3605C84.6833 33.0059 85.6251 32.8285 86.9627 32.8285H88.6005C88.0818 33.1559 87.5632 33.7697 87.0446 34.67C86.5259 35.5431 86.0345 36.5796 85.5706 37.7801C85.2156 38.6531 84.8062 39.6762 84.3423 40.8492C83.9054 42.0223 83.4959 43.1409 83.1139 44.2048C82.7589 45.187 82.3495 46.2782 81.8856 47.4786C81.4487 48.6791 80.9438 49.8658 80.3706 51.0389C79.8246 52.2119 79.1967 53.2487 78.4872 54.1489C77.3952 55.5403 76.0577 56.6589 74.4746 57.5046C72.9187 58.3776 71.3353 58.8141 69.725 58.8141ZM73.4509 45.8827C73.5328 45.9099 73.6557 45.9236 73.8194 45.9236C74.338 45.9236 74.8975 45.7053 75.4982 45.2688C76.0986 44.8324 76.6991 44.273 77.2998 43.591C77.9002 42.8816 78.4325 42.1724 78.8966 41.4631C80.0431 39.6897 80.9029 38.3258 81.4761 37.3708C82.0766 36.4159 82.4314 35.8158 82.5407 35.5703C82.5679 35.5703 82.5816 35.5431 82.5816 35.4884C82.4451 35.0246 82.1994 34.6972 81.8446 34.5063C81.5171 34.288 81.1349 34.1789 80.6982 34.1789C80.0975 34.1789 79.4561 34.3426 78.7738 34.67C78.0912 34.9974 77.518 35.3929 77.0541 35.8567C76.3443 36.5661 75.662 37.4799 75.0068 38.5985C74.3789 39.7171 73.8604 40.822 73.4509 41.9132C73.0415 43.0044 72.8368 43.9184 72.8368 44.655C72.8368 45.337 73.0415 45.7462 73.4509 45.8827ZM93.3332 49.6884C92.5415 49.5519 91.8045 49.361 91.1221 49.1155C90.4396 48.8428 89.8528 48.5017 89.3615 48.0925C89.0065 47.7651 88.7473 47.3831 88.5835 46.9466C88.4198 46.4828 88.3379 45.9917 88.3379 45.4734C88.3379 44.6004 88.4879 43.7001 88.7883 42.7726C89.0884 41.8177 89.3478 40.9992 89.5662 40.3172C90.0848 38.7894 90.699 37.1662 91.4087 35.4475C92.1458 33.7288 92.8828 32.0647 93.6198 30.455C94.384 28.8453 95.0664 27.413 95.667 26.1582C96.2675 24.9033 96.7179 23.9893 97.0182 23.4164C97.1273 23.1981 97.2229 22.9934 97.3048 22.8025C97.4139 22.6116 97.523 22.4342 97.6324 22.2706C97.3593 22.2978 97.1001 22.3387 96.8544 22.3933C96.6087 22.4205 96.3766 22.448 96.1584 22.4752C94.9572 22.6389 93.7017 22.9116 92.3914 23.2936C91.1084 23.6482 89.9482 24.0983 88.9111 24.644C87.8738 25.1897 87.123 25.858 86.6591 26.6492C86.6317 26.7311 86.5772 26.772 86.4954 26.772C86.4407 26.772 86.3998 26.7174 86.3725 26.6083C86.3179 26.4992 86.3041 26.3765 86.3316 26.24C86.6045 25.5306 86.9458 24.8487 87.3552 24.1939C87.7647 23.5391 88.1604 23.0209 88.5426 22.6389C89.1431 22.0113 89.962 21.5612 90.9993 21.2884C92.0364 21.0157 93.101 20.8383 94.193 20.7564C95.312 20.6746 96.2675 20.6337 97.0591 20.6337H105.453C108.21 20.6337 110.421 21.1519 112.086 22.1887C113.778 23.2255 115.007 24.5894 115.771 26.2809C116.535 27.9724 116.917 29.8002 116.917 31.7645C116.917 32.2284 116.904 32.692 116.876 33.1559C116.849 33.6197 116.795 34.0834 116.713 34.5472C116.303 37.0298 115.498 39.2396 114.297 41.1766C113.123 43.0862 111.663 44.6959 109.916 46.0054C108.169 47.3149 106.203 48.3108 104.02 48.9927C101.863 49.6475 99.5977 49.9749 97.2229 49.9749C96.595 49.9749 95.9536 49.9477 95.2985 49.893C94.6434 49.8658 93.9883 49.7975 93.3332 49.6884ZM94.3568 48.0925C94.7116 48.1197 95.0664 48.1606 95.4213 48.2152C95.7761 48.2424 96.1309 48.2561 96.4859 48.2561C98.4238 48.2561 100.253 47.9151 101.973 47.2331C103.719 46.5511 105.289 45.5962 106.681 44.3685C108.101 43.1409 109.302 41.7223 110.284 40.1126C111.267 38.503 111.977 36.757 112.413 34.8746C112.714 33.6197 112.864 32.4193 112.864 31.2734C112.864 30.0458 112.673 28.8727 112.291 27.7541C111.936 26.6083 111.349 25.5853 110.53 24.685C109.793 23.8665 108.81 23.239 107.582 22.8025C106.354 22.3387 105.221 22.0659 104.184 21.9841C103.938 21.9569 103.692 21.9432 103.447 21.9432C103.201 21.916 102.955 21.9023 102.71 21.9023C102.218 22.557 101.713 23.3345 101.195 24.2348C100.676 25.1079 100.171 26.0082 99.6796 26.9357C99.2155 27.8632 98.806 28.709 98.4513 29.4729C97.523 31.4643 96.6497 33.456 95.8308 35.4475C95.0119 37.439 94.2749 39.4716 93.6198 41.5449C93.4286 42.145 93.2375 42.8272 93.0465 43.591C92.8553 44.3548 92.7599 45.0642 92.7599 45.719C92.7599 46.3191 92.869 46.8511 93.0875 47.3149C93.3332 47.7514 93.7561 48.0106 94.3568 48.0925ZM119.577 49.4429C118.867 49.4429 118.281 49.1155 117.817 48.4608C117.38 47.7788 117.216 46.7283 117.325 45.3097C117.38 44.7096 117.516 43.9456 117.735 43.0181C117.953 42.0906 118.24 41.0948 118.595 40.0308C118.977 38.9396 119.4 37.8891 119.864 36.8798C120.328 35.843 120.833 34.9292 121.379 34.138C121.679 33.7288 121.979 33.4832 122.28 33.4014C122.607 33.2923 123.194 33.2377 124.04 33.2377H126.006C125.541 33.8925 125.05 34.7109 124.532 35.693C124.013 36.6752 123.535 37.6573 123.098 38.6394C122.662 39.5943 122.32 40.3991 122.075 41.0538C122.02 41.2447 121.911 41.5858 121.747 42.0769C121.583 42.5407 121.433 43.059 121.297 43.6319C121.16 44.2048 121.092 44.7368 121.092 45.2279C121.092 45.6643 121.174 46.0326 121.338 46.3328C121.502 46.633 121.802 46.7829 122.239 46.7829C122.757 46.7557 123.317 46.4284 123.917 45.8008C124.518 45.1733 125.118 44.3685 125.719 43.3864C126.319 42.4043 126.906 41.3812 127.48 40.3172C128.08 39.2261 128.612 38.2165 129.076 37.289C129.568 36.3341 129.977 35.5975 130.305 35.0792C130.714 34.4517 131.151 33.9062 131.615 33.4423C132.079 32.9512 132.611 32.7057 133.212 32.7057C133.43 32.7057 133.717 32.7194 134.072 32.7466C134.454 32.7466 134.822 32.7466 135.177 32.7466C135.559 32.7466 135.819 32.7329 135.955 32.7057C135.791 32.8148 135.6 33.0331 135.382 33.3605C135.163 33.6878 134.945 34.0289 134.727 34.3835C134.536 34.7109 134.386 34.9836 134.276 35.202C133.567 36.6205 132.871 38.0528 132.188 39.4988C131.533 40.9174 131.042 42.2678 130.714 43.5501C130.578 44.0412 130.509 44.4641 130.509 44.8187C130.509 45.6371 130.782 46.0463 131.328 46.0463C131.711 46.0463 132.256 45.7736 132.966 45.2279C133.512 44.7915 134.044 44.2321 134.563 43.5501C135.136 42.8407 135.669 42.0769 136.16 41.2584C136.651 40.44 137.074 39.6897 137.429 39.0077C137.538 38.8168 137.634 38.7213 137.716 38.7213C137.88 38.7213 137.961 38.9396 137.961 39.376C137.961 39.5943 137.92 39.8534 137.839 40.1536C137.784 40.4263 137.675 40.6992 137.511 40.972C137.129 41.6268 136.678 42.3496 136.16 43.1409C135.641 43.9047 135.109 44.6687 134.563 45.4325C134.181 45.9236 133.676 46.4828 133.048 47.1103C132.42 47.7379 131.752 48.2834 131.042 48.7472C130.359 49.2111 129.691 49.4429 129.035 49.4429C128.653 49.4429 128.298 49.361 127.971 49.1974C127.643 49.0609 127.37 48.7744 127.152 48.338C126.879 47.7651 126.743 46.9876 126.743 46.0054C126.743 45.7053 126.756 45.3916 126.783 45.0642C126.811 44.7096 126.852 44.3548 126.906 44.0002C126.497 44.5731 126.06 45.1051 125.596 45.5962C125.159 46.0873 124.709 46.5783 124.245 47.0694C123.208 48.1062 122.32 48.7609 121.583 49.0337C120.874 49.3064 120.205 49.4429 119.577 49.4429ZM141.287 49.6066C140.004 49.6066 138.967 49.3748 138.175 48.9109C137.384 48.4198 136.81 47.7788 136.455 46.9876C136.128 46.1691 135.964 45.296 135.964 44.3685C135.964 43.441 136.1 42.4998 136.374 41.5449C136.646 40.59 137.015 39.6897 137.479 38.844C138.434 37.1253 139.608 35.7067 141 34.5881C142.42 33.4695 144.153 32.9103 146.2 32.9103C147.483 32.9103 148.48 33.2377 149.189 33.8925C149.899 34.5472 150.254 35.311 150.254 36.1841C150.254 37.0025 150.008 37.7528 149.517 38.4348C149.053 39.1168 148.425 39.4579 147.633 39.4579C147.197 39.4579 146.815 39.3351 146.487 39.0896C146.159 38.844 145.996 38.462 145.996 37.9438C145.996 37.8619 145.996 37.7801 145.996 37.6982C146.023 37.5892 146.05 37.4799 146.078 37.3708C146.241 37.3436 146.473 37.3027 146.774 37.2481C147.101 37.1662 147.36 36.9753 147.552 36.6752C147.906 36.1841 148.084 35.693 148.084 35.202C148.084 34.9018 147.988 34.6563 147.797 34.4654C147.633 34.247 147.347 34.138 146.937 34.138C146.2 34.138 145.45 34.4107 144.685 34.9564C143.921 35.4747 143.198 36.1704 142.515 37.0435C141.86 37.9165 141.287 38.8713 140.796 39.908C140.031 41.5721 139.649 43.0999 139.649 44.4913C139.649 45.5006 139.881 46.3328 140.345 46.9876C140.809 47.6151 141.546 47.9288 142.556 47.9288C143.839 47.9288 145.04 47.4923 146.159 46.6193C147.306 45.719 148.33 44.6822 149.23 43.5092C149.831 42.7454 150.363 41.9678 150.827 41.1766C151.318 40.3854 151.728 39.6625 152.055 39.0077C152.165 38.8168 152.26 38.7213 152.342 38.7213C152.506 38.7213 152.588 38.9531 152.588 39.417C152.588 39.6353 152.547 39.8943 152.465 40.1945C152.41 40.4672 152.315 40.7265 152.178 40.972C151.714 41.7358 151.237 42.4998 150.745 43.2636C150.281 44.0274 149.776 44.7505 149.23 45.4325C148.302 46.633 147.21 47.6286 145.955 48.4198C144.699 49.2111 143.143 49.6066 141.287 49.6066Z" fill="black"/>
</svg>
