<svg width="100" height="100" viewBox="0 0 100 100" fill="none" xmlns="http://www.w3.org/2000/svg">
<mask id="mask0_802_1429" style="mask-type:alpha" maskUnits="userSpaceOnUse" x="0" y="0" width="100" height="100">
<rect width="100" height="100" fill="#D9D9D9"/>
</mask>
<g mask="url(#mask0_802_1429)">
<path d="M35.0007 70.8335L50.0007 55.8335L65.0007 70.8335L70.834 65.0002L55.834 50.0002L70.834 35.0002L65.0007 29.1668L50.0007 44.1668L35.0007 29.1668L29.1673 35.0002L44.1673 50.0002L29.1673 65.0002L35.0007 70.8335ZM50.0007 91.6668C44.2368 91.6668 38.8201 90.5731 33.7507 88.3856C28.6812 86.1981 24.2715 83.2293 20.5215 79.4793C16.7715 75.7293 13.8027 71.3196 11.6152 66.2502C9.42773 61.1807 8.33398 55.7641 8.33398 50.0002C8.33398 44.2363 9.42773 38.8196 11.6152 33.7502C13.8027 28.6807 16.7715 24.271 20.5215 20.521C24.2715 16.771 28.6812 13.8022 33.7507 11.6147C38.8201 9.42725 44.2368 8.3335 50.0007 8.3335C55.7645 8.3335 61.1812 9.42725 66.2507 11.6147C71.3201 13.8022 75.7298 16.771 79.4798 20.521C83.2298 24.271 86.1986 28.6807 88.3861 33.7502C90.5736 38.8196 91.6673 44.2363 91.6673 50.0002C91.6673 55.7641 90.5736 61.1807 88.3861 66.2502C86.1986 71.3196 83.2298 75.7293 79.4798 79.4793C75.7298 83.2293 71.3201 86.1981 66.2507 88.3856C61.1812 90.5731 55.7645 91.6668 50.0007 91.6668ZM50.0007 83.3335C59.3062 83.3335 67.1882 80.1043 73.6465 73.646C80.1048 67.1877 83.334 59.3057 83.334 50.0002C83.334 40.6946 80.1048 32.8127 73.6465 26.3543C67.1882 19.896 59.3062 16.6668 50.0007 16.6668C40.6951 16.6668 32.8132 19.896 26.3548 26.3543C19.8965 32.8127 16.6673 40.6946 16.6673 50.0002C16.6673 59.3057 19.8965 67.1877 26.3548 73.646C32.8132 80.1043 40.6951 83.3335 50.0007 83.3335Z" fill="#FA1D21"/>
</g>
</svg>
