<svg width="84" height="84" viewBox="0 0 84 84" fill="none" xmlns="http://www.w3.org/2000/svg">
<path d="M36.1673 61.1668L65.5423 31.7918L59.709 25.9585L36.1673 49.5002L24.2923 37.6252L18.459 43.4585L36.1673 61.1668ZM42.0007 83.6668C36.2368 83.6668 30.8201 82.5731 25.7506 80.3856C20.6812 78.1981 16.2715 75.2293 12.5215 71.4793C8.77148 67.7293 5.80273 63.3196 3.61523 58.2502C1.42773 53.1807 0.333984 47.7641 0.333984 42.0002C0.333984 36.2363 1.42773 30.8196 3.61523 25.7502C5.80273 20.6807 8.77148 16.271 12.5215 12.521C16.2715 8.771 20.6812 5.80225 25.7506 3.61475C30.8201 1.42725 36.2368 0.333496 42.0007 0.333496C47.7645 0.333496 53.1812 1.42725 58.2506 3.61475C63.3201 5.80225 67.7298 8.771 71.4798 12.521C75.2298 16.271 78.1986 20.6807 80.3861 25.7502C82.5736 30.8196 83.6673 36.2363 83.6673 42.0002C83.6673 47.7641 82.5736 53.1807 80.3861 58.2502C78.1986 63.3196 75.2298 67.7293 71.4798 71.4793C67.7298 75.2293 63.3201 78.1981 58.2506 80.3856C53.1812 82.5731 47.7645 83.6668 42.0007 83.6668ZM42.0007 75.3335C51.3062 75.3335 59.1882 72.1043 65.6465 65.646C72.1048 59.1877 75.334 51.3057 75.334 42.0002C75.334 32.6946 72.1048 24.8127 65.6465 18.3543C59.1882 11.896 51.3062 8.66683 42.0007 8.66683C32.6951 8.66683 24.8132 11.896 18.3548 18.3543C11.8965 24.8127 8.66732 32.6946 8.66732 42.0002C8.66732 51.3057 11.8965 59.1877 18.3548 65.646C24.8132 72.1043 32.6951 75.3335 42.0007 75.3335Z" fill="#51BD4F"/>
</svg>
